<svg width="171" height="69" viewBox="0 0 171 69" fill="none" xmlns="http://www.w3.org/2000/svg">
<path d="M5.936 60L4.496 51.2H5.744L6.64 57.408C6.672 57.6427 6.704 57.904 6.736 58.192C6.768 58.4693 6.78933 58.6987 6.8 58.88C6.82133 58.6987 6.84267 58.4693 6.864 58.192C6.896 57.904 6.93333 57.6427 6.976 57.408L8.08 51.2H9.52L10.624 57.408C10.6667 57.6427 10.704 57.904 10.736 58.192C10.7787 58.4693 10.8053 58.6987 10.816 58.88C10.8373 58.6987 10.864 58.4693 10.896 58.192C10.928 57.904 10.96 57.6427 10.992 57.408L11.92 51.2H13.104L11.6 60H10.016L9.008 53.92C8.96533 53.6213 8.92267 53.3067 8.88 52.976C8.848 52.6347 8.82133 52.3733 8.8 52.192C8.78933 52.3093 8.77333 52.4693 8.752 52.672C8.73067 52.864 8.704 53.072 8.672 53.296C8.64 53.5093 8.608 53.7173 8.576 53.92L7.52 60H5.936ZM18.3938 60.16C17.7004 60.16 17.0924 60.0213 16.5698 59.744C16.0578 59.456 15.6578 59.0507 15.3698 58.528C15.0818 57.9947 14.9378 57.3653 14.9378 56.64V54.56C14.9378 53.824 15.0818 53.1947 15.3698 52.672C15.6578 52.1493 16.0578 51.7493 16.5698 51.472C17.0924 51.184 17.7004 51.04 18.3938 51.04C19.0871 51.04 19.6898 51.1787 20.2018 51.456C20.7244 51.7333 21.1298 52.1227 21.4178 52.624C21.7058 53.1253 21.8498 53.7173 21.8498 54.4V55.968H16.3458V56.8C16.3458 57.4507 16.5324 57.968 16.9058 58.352C17.2791 58.7253 17.7751 58.912 18.3938 58.912C18.9271 58.912 19.3644 58.8107 19.7058 58.608C20.0578 58.3947 20.2711 58.112 20.3458 57.76H21.7858C21.6898 58.496 21.3324 59.0827 20.7138 59.52C20.0951 59.9467 19.3218 60.16 18.3938 60.16ZM20.4418 54.992V54.4C20.4418 53.7067 20.2604 53.1733 19.8978 52.8C19.5458 52.416 19.0444 52.224 18.3938 52.224C17.7431 52.224 17.2364 52.416 16.8738 52.8C16.5218 53.1733 16.3458 53.7067 16.3458 54.4V54.848H20.5538L20.4418 54.992ZM28.4995 60.16C27.7742 60.16 27.1928 59.968 26.7555 59.584C26.3182 59.1893 26.0995 58.656 26.0995 57.984L26.3875 58.32H26.0995V60H24.6595V48.32H26.0995V50.88L26.0675 52.88H26.3875L26.0675 53.216C26.0675 52.5547 26.2915 52.0267 26.7395 51.632C27.1982 51.2373 27.7848 51.04 28.4995 51.04C29.3848 51.04 30.0888 51.3333 30.6115 51.92C31.1342 52.5067 31.3955 53.3067 31.3955 54.32V56.896C31.3955 57.8987 31.1342 58.6933 30.6115 59.28C30.0888 59.8667 29.3848 60.16 28.4995 60.16ZM28.0195 58.912C28.6275 58.912 29.1022 58.752 29.4435 58.432C29.7848 58.112 29.9555 57.5947 29.9555 56.88V54.32C29.9555 53.5947 29.7848 53.0773 29.4435 52.768C29.1022 52.448 28.6275 52.288 28.0195 52.288C27.4328 52.288 26.9635 52.4747 26.6115 52.848C26.2702 53.2213 26.0995 53.7387 26.0995 54.4V56.8C26.0995 57.4613 26.2702 57.9787 26.6115 58.352C26.9635 58.7253 27.4328 58.912 28.0195 58.912ZM62.5225 60V51.2H63.7705V52.368H64.0905L63.7865 52.64C63.7865 52.1707 63.9198 51.7867 64.1865 51.488C64.4638 51.1893 64.8265 51.04 65.2745 51.04C65.7865 51.04 66.1918 51.232 66.4905 51.616C66.7892 52 66.9385 52.5013 66.9385 53.12L66.5065 52.288H67.1785L66.8105 52.64C66.8212 52.1493 66.9652 51.76 67.2425 51.472C67.5198 51.184 67.8878 51.04 68.3465 51.04C68.9118 51.04 69.3598 51.2533 69.6905 51.68C70.0318 52.096 70.2025 52.64 70.2025 53.312V60H68.8585V53.296C68.8585 52.944 68.7732 52.6667 68.6025 52.464C68.4318 52.2507 68.1972 52.144 67.8985 52.144C67.6105 52.144 67.3812 52.2453 67.2105 52.448C67.0398 52.6507 66.9545 52.928 66.9545 53.28V60H65.7705V53.296C65.7705 52.944 65.6852 52.6667 65.5145 52.464C65.3438 52.2507 65.1145 52.144 64.8265 52.144C64.5278 52.144 64.2932 52.2453 64.1225 52.448C63.9518 52.6507 63.8665 52.928 63.8665 53.28V60H62.5225ZM75.9563 60.128C75.2523 60.128 74.6389 59.9893 74.1163 59.712C73.6043 59.4347 73.2043 59.0347 72.9163 58.512C72.6389 57.9787 72.5003 57.344 72.5003 56.608V54.592C72.5003 53.8453 72.6389 53.2107 72.9163 52.688C73.2043 52.1653 73.6043 51.7653 74.1163 51.488C74.6389 51.2107 75.2523 51.072 75.9563 51.072C76.6709 51.072 77.2843 51.2107 77.7963 51.488C78.3083 51.7653 78.7029 52.1653 78.9803 52.688C79.2683 53.2107 79.4123 53.8453 79.4123 54.592V56.608C79.4123 57.344 79.2683 57.9787 78.9803 58.512C78.7029 59.0347 78.3029 59.4347 77.7803 59.712C77.2683 59.9893 76.6603 60.128 75.9563 60.128ZM75.9563 58.848C76.5856 58.848 77.0763 58.672 77.4283 58.32C77.7909 57.968 77.9723 57.4507 77.9723 56.768V54.432C77.9723 53.7493 77.7909 53.232 77.4283 52.88C77.0763 52.528 76.5856 52.352 75.9563 52.352C75.3376 52.352 74.8469 52.528 74.4843 52.88C74.1216 53.232 73.9403 53.7493 73.9403 54.432V56.768C73.9403 57.4507 74.1216 57.968 74.4843 58.32C74.8469 58.672 75.3376 58.848 75.9563 58.848ZM86.062 60.16C85.3367 60.16 84.7553 59.968 84.318 59.584C83.8807 59.1893 83.662 58.656 83.662 57.984L83.95 58.32H83.662V60H82.222V48.32H83.662V50.88L83.63 52.88H83.95L83.63 53.216C83.63 52.5547 83.854 52.0267 84.302 51.632C84.7607 51.2373 85.3473 51.04 86.062 51.04C86.9473 51.04 87.6513 51.3333 88.174 51.92C88.6967 52.5067 88.958 53.3067 88.958 54.32V56.896C88.958 57.8987 88.6967 58.6933 88.174 59.28C87.6513 59.8667 86.9473 60.16 86.062 60.16ZM85.582 58.912C86.19 58.912 86.6647 58.752 87.006 58.432C87.3473 58.112 87.518 57.5947 87.518 56.88V54.32C87.518 53.5947 87.3473 53.0773 87.006 52.768C86.6647 52.448 86.19 52.288 85.582 52.288C84.9953 52.288 84.526 52.4747 84.174 52.848C83.8327 53.2213 83.662 53.7387 83.662 54.4V56.8C83.662 57.4613 83.8327 57.9787 84.174 58.352C84.526 58.7253 84.9953 58.912 85.582 58.912ZM91.7038 60V58.688H94.8238V52.512H92.0238V51.2H96.2638V58.688H99.2238V60H91.7038ZM95.3838 49.616C95.0318 49.616 94.7544 49.5253 94.5518 49.344C94.3491 49.1627 94.2478 48.9173 94.2478 48.608C94.2478 48.288 94.3491 48.0373 94.5518 47.856C94.7544 47.664 95.0318 47.568 95.3838 47.568C95.7358 47.568 96.0131 47.664 96.2158 47.856C96.4184 48.0373 96.5198 48.288 96.5198 48.608C96.5198 48.9173 96.4184 49.1627 96.2158 49.344C96.0131 49.5253 95.7358 49.616 95.3838 49.616ZM106.018 60C105.506 60 105.058 59.8987 104.674 59.696C104.29 59.4933 103.991 59.2053 103.778 58.832C103.564 58.4587 103.458 58.0213 103.458 57.52V49.632H100.418V48.32H104.898V57.52C104.898 57.8827 104.999 58.1707 105.202 58.384C105.404 58.5867 105.676 58.688 106.018 58.688H108.738V60H106.018ZM114.331 60.16C113.638 60.16 113.03 60.0213 112.507 59.744C111.995 59.456 111.595 59.0507 111.307 58.528C111.019 57.9947 110.875 57.3653 110.875 56.64V54.56C110.875 53.824 111.019 53.1947 111.307 52.672C111.595 52.1493 111.995 51.7493 112.507 51.472C113.03 51.184 113.638 51.04 114.331 51.04C115.025 51.04 115.627 51.1787 116.139 51.456C116.662 51.7333 117.067 52.1227 117.355 52.624C117.643 53.1253 117.787 53.7173 117.787 54.4V55.968H112.283V56.8C112.283 57.4507 112.47 57.968 112.843 58.352C113.217 58.7253 113.713 58.912 114.331 58.912C114.865 58.912 115.302 58.8107 115.643 58.608C115.995 58.3947 116.209 58.112 116.283 57.76H117.723C117.627 58.496 117.27 59.0827 116.651 59.52C116.033 59.9467 115.259 60.16 114.331 60.16ZM116.379 54.992V54.4C116.379 53.7067 116.198 53.1733 115.835 52.8C115.483 52.416 114.982 52.224 114.331 52.224C113.681 52.224 113.174 52.416 112.811 52.8C112.459 53.1733 112.283 53.7067 112.283 54.4V54.848H116.491L116.379 54.992ZM134.399 60C133.673 60 133.092 59.792 132.655 59.376C132.217 58.9493 131.999 58.384 131.999 57.68V52.512H129.471V51.2H131.999V48.72H133.439V51.2H137.039V52.512H133.439V57.68C133.439 57.9787 133.524 58.224 133.695 58.416C133.876 58.5973 134.111 58.688 134.399 58.688H136.959V60H134.399ZM143.113 60.16C142.419 60.16 141.811 60.0213 141.289 59.744C140.777 59.456 140.377 59.0507 140.089 58.528C139.801 57.9947 139.657 57.3653 139.657 56.64V54.56C139.657 53.824 139.801 53.1947 140.089 52.672C140.377 52.1493 140.777 51.7493 141.289 51.472C141.811 51.184 142.419 51.04 143.113 51.04C143.806 51.04 144.409 51.1787 144.921 51.456C145.443 51.7333 145.849 52.1227 146.137 52.624C146.425 53.1253 146.569 53.7173 146.569 54.4V55.968H141.065V56.8C141.065 57.4507 141.251 57.968 141.625 58.352C141.998 58.7253 142.494 58.912 143.113 58.912C143.646 58.912 144.083 58.8107 144.425 58.608C144.777 58.3947 144.99 58.112 145.065 57.76H146.505C146.409 58.496 146.051 59.0827 145.433 59.52C144.814 59.9467 144.041 60.16 143.113 60.16ZM145.161 54.992V54.4C145.161 53.7067 144.979 53.1733 144.617 52.8C144.265 52.416 143.763 52.224 143.113 52.224C142.462 52.224 141.955 52.416 141.593 52.8C141.241 53.1733 141.065 53.7067 141.065 54.4V54.848H145.273L145.161 54.992ZM152.834 60.16C152.13 60.16 151.512 60.0267 150.978 59.76C150.456 59.4933 150.045 59.1093 149.746 58.608C149.458 58.096 149.314 57.4933 149.314 56.8V54.4C149.314 53.696 149.458 53.0933 149.746 52.592C150.045 52.0907 150.456 51.7067 150.978 51.44C151.512 51.1733 152.13 51.04 152.834 51.04C153.848 51.04 154.664 51.312 155.282 51.856C155.912 52.4 156.242 53.1413 156.274 54.08H154.834C154.802 53.5147 154.61 53.0827 154.258 52.784C153.906 52.4747 153.432 52.32 152.834 52.32C152.205 52.32 151.698 52.5013 151.314 52.864C150.941 53.216 150.754 53.7227 150.754 54.384V56.8C150.754 57.4613 150.941 57.9733 151.314 58.336C151.698 58.6987 152.205 58.88 152.834 58.88C153.432 58.88 153.906 58.7253 154.258 58.416C154.61 58.1067 154.802 57.6747 154.834 57.12H156.274C156.242 58.0587 155.912 58.8 155.282 59.344C154.664 59.888 153.848 60.16 152.834 60.16ZM158.972 60V48.32H160.412V51.2V52.88H160.716L160.412 53.216C160.412 52.5227 160.62 51.9893 161.036 51.616C161.452 51.232 162.028 51.04 162.764 51.04C163.649 51.04 164.353 51.312 164.876 51.856C165.399 52.4 165.66 53.1413 165.66 54.08V60H164.22V54.32C164.22 53.6587 164.049 53.152 163.708 52.8C163.377 52.4373 162.924 52.256 162.348 52.256C161.751 52.256 161.276 52.4427 160.924 52.816C160.583 53.1893 160.412 53.7173 160.412 54.4V60H158.972Z" fill="white"/>
<path d="M45.815 60.144C44.8763 60.144 44.135 59.872 43.591 59.328C43.047 58.7733 42.775 58.0267 42.775 57.088V56.176C42.775 55.2907 43.031 54.592 43.543 54.08C44.055 53.5573 44.7483 53.296 45.623 53.296L45.479 53.36L44.983 52.72C44.7057 52.3467 44.4923 51.9947 44.343 51.664C44.1937 51.3227 44.119 51.0027 44.119 50.704C44.119 50.2027 44.2363 49.76 44.471 49.376C44.7057 48.992 45.031 48.6933 45.447 48.48C45.863 48.2667 46.343 48.16 46.887 48.16C47.4737 48.16 47.9857 48.288 48.423 48.544C48.871 48.8 49.2177 49.1573 49.463 49.616C49.719 50.064 49.847 50.592 49.847 51.2H48.439C48.439 50.6667 48.295 50.2347 48.007 49.904C47.7297 49.5627 47.3563 49.392 46.887 49.392C46.4923 49.392 46.167 49.5147 45.911 49.76C45.6657 50.0053 45.543 50.3307 45.543 50.736C45.543 50.9387 45.5803 51.1467 45.655 51.36C45.7403 51.5627 45.8577 51.76 46.007 51.952L49.127 55.984L50.583 54.16H52.183L49.895 56.976L52.215 60H50.631L49.079 57.952L48.391 58.816C48.0283 59.264 47.623 59.6 47.175 59.824C46.7377 60.0373 46.2843 60.144 45.815 60.144ZM45.911 58.848C46.2097 58.848 46.4923 58.7787 46.759 58.64C47.0257 58.5013 47.2603 58.2987 47.463 58.032L48.295 56.976L46.295 54.416H45.815C45.3137 54.416 44.9137 54.576 44.615 54.896C44.327 55.2053 44.183 55.632 44.183 56.176V57.088C44.183 57.632 44.3377 58.064 44.647 58.384C44.967 58.6933 45.3883 58.848 45.911 58.848Z" fill="#F0D546"/>
<path d="M3.66193 22.2571V20.2756C5.44105 20.2756 6.68217 19.9027 7.3853 19.157C8.09908 18.4112 8.45597 17.1648 8.45597 15.4176V10.304C8.45597 8.83381 8.59446 7.56072 8.87145 6.48473C9.15909 5.40873 9.62251 4.51918 10.2617 3.81605C10.9009 3.11293 11.7532 2.59091 12.8185 2.25C13.8839 1.90909 15.1996 1.73863 16.7656 1.73863V4.87074C15.5298 4.87074 14.555 5.0625 13.8413 5.44602C13.1381 5.82954 12.6374 6.42614 12.3391 7.23579C12.0515 8.0348 11.9077 9.05753 11.9077 10.304V16.696C11.9077 17.527 11.7958 18.2834 11.5721 18.9652C11.359 19.647 10.9595 20.233 10.3736 20.723C9.78764 21.2131 8.95135 21.5913 7.8647 21.8576C6.78871 22.1239 5.38778 22.2571 3.66193 22.2571ZM16.7656 42.6477C15.1996 42.6477 13.8839 42.4773 12.8185 42.1364C11.7532 41.7955 10.9009 41.2734 10.2617 40.5703C9.62251 39.8672 9.15909 38.9776 8.87145 37.9016C8.59446 36.8256 8.45597 35.5526 8.45597 34.0824V28.9688C8.45597 27.2216 8.09908 25.9751 7.3853 25.2294C6.68217 24.4837 5.44105 24.1108 3.66193 24.1108V22.1293C5.38778 22.1293 6.78871 22.2624 7.8647 22.5288C8.95135 22.7951 9.78764 23.1733 10.3736 23.6634C10.9595 24.1534 11.359 24.7393 11.5721 25.4212C11.7958 26.103 11.9077 26.8594 11.9077 27.6903V34.0824C11.9077 35.3288 12.0515 36.3516 12.3391 37.1506C12.6374 37.9496 13.1381 38.5408 13.8413 38.9244C14.555 39.3185 15.5298 39.5156 16.7656 39.5156V42.6477ZM3.66193 24.1108V20.2756H7.43324V24.1108H3.66193ZM165.568 22.1293V24.1108C163.789 24.1108 162.543 24.4837 161.829 25.2294C161.126 25.9751 160.774 27.2216 160.774 28.9688V34.0824C160.774 35.5526 160.631 36.8256 160.343 37.9016C160.066 38.9776 159.608 39.8672 158.969 40.5703C158.329 41.2734 157.477 41.7955 156.412 42.1364C155.347 42.4773 154.031 42.6477 152.465 42.6477V39.5156C153.701 39.5156 154.67 39.3185 155.373 38.9244C156.087 38.5408 156.588 37.9496 156.875 37.1506C157.174 36.3516 157.323 35.3288 157.323 34.0824V27.6903C157.323 26.8594 157.429 26.103 157.642 25.4212C157.866 24.7393 158.271 24.1534 158.857 23.6634C159.443 23.1733 160.274 22.7951 161.35 22.5288C162.436 22.2624 163.843 22.1293 165.568 22.1293ZM152.465 1.73863C154.031 1.73863 155.347 1.90909 156.412 2.25C157.477 2.59091 158.329 3.11293 158.969 3.81605C159.608 4.51918 160.066 5.40873 160.343 6.48473C160.631 7.56072 160.774 8.83381 160.774 10.304V15.4176C160.774 17.1648 161.126 18.4112 161.829 19.157C162.543 19.9027 163.789 20.2756 165.568 20.2756V22.2571C163.843 22.2571 162.436 22.1239 161.35 21.8576C160.274 21.5913 159.443 21.2131 158.857 20.723C158.271 20.233 157.866 19.647 157.642 18.9652C157.429 18.2834 157.323 17.527 157.323 16.696V10.304C157.323 9.05753 157.174 8.0348 156.875 7.23579C156.588 6.42614 156.087 5.82954 155.373 5.44602C154.67 5.0625 153.701 4.87074 152.465 4.87074V1.73863ZM165.568 20.2756V24.1108H161.797V20.2756H165.568Z" fill="#F0D546"/>
<path d="M21.7554 36V11.4545H25.5267V36H21.7554ZM23.673 7.36364C22.9379 7.36364 22.3041 7.11328 21.7714 6.61257C21.2494 6.11186 20.9884 5.50994 20.9884 4.80682C20.9884 4.10369 21.2494 3.50178 21.7714 3.00106C22.3041 2.50035 22.9379 2.25 23.673 2.25C24.4081 2.25 25.0367 2.50035 25.5587 3.00106C26.0914 3.50178 26.3577 4.10369 26.3577 4.80682C26.3577 5.50994 26.0914 6.11186 25.5587 6.61257C25.0367 7.11328 24.4081 7.36364 23.673 7.36364ZM32.9455 36V3.27273H52.5691V6.78835H36.9086V17.8466H51.0989V21.3622H36.9086V36H32.9455ZM62.6166 3.27273V36H58.8453V3.27273H62.6166ZM69.524 36V11.4545H73.2953V36H69.524ZM71.4416 7.36364C70.7065 7.36364 70.0726 7.11328 69.54 6.61257C69.0179 6.11186 68.7569 5.50994 68.7569 4.80682C68.7569 4.10369 69.0179 3.50178 69.54 3.00106C70.0726 2.50035 70.7065 2.25 71.4416 2.25C72.1767 2.25 72.8052 2.50035 73.3272 3.00106C73.8599 3.50178 74.1262 4.10369 74.1262 4.80682C74.1262 5.50994 73.8599 6.11186 73.3272 6.61257C72.8052 7.11328 72.1767 7.36364 71.4416 7.36364ZM97.589 16.9517L94.2013 17.9105C93.9882 17.3459 93.6739 16.7972 93.2584 16.2646C92.8536 15.7212 92.2996 15.2738 91.5965 14.9222C90.8934 14.5707 89.9932 14.3949 88.8959 14.3949C87.3937 14.3949 86.142 14.7411 85.1405 15.4336C84.1498 16.1154 83.6544 16.9837 83.6544 18.0384C83.6544 18.9759 83.9953 19.7163 84.6771 20.2596C85.3589 20.8029 86.4243 21.2557 87.8731 21.6179L91.5166 22.5128C93.7112 23.0455 95.3465 23.8604 96.4225 24.9577C97.4985 26.0444 98.0365 27.4453 98.0365 29.1605C98.0365 30.5668 97.6317 31.8239 96.822 32.9318C96.023 34.0398 94.9044 34.9134 93.4662 35.5526C92.028 36.1918 90.3554 36.5114 88.4484 36.5114C85.9449 36.5114 83.8728 35.968 82.2322 34.8814C80.5915 33.7947 79.5528 32.2074 79.116 30.1193L82.6956 29.2244C83.0365 30.5455 83.681 31.5362 84.6292 32.1967C85.588 32.8572 86.8398 33.1875 88.3845 33.1875C90.1423 33.1875 91.5379 32.8146 92.5713 32.0689C93.6153 31.3125 94.1373 30.407 94.1373 29.3523C94.1373 28.5 93.839 27.7862 93.2425 27.2109C92.6459 26.625 91.7297 26.1882 90.4939 25.9006L86.403 24.9418C84.1551 24.4091 82.5038 23.5835 81.4491 22.4648C80.4051 21.3356 79.8831 19.924 79.8831 18.2301C79.8831 16.8452 80.2719 15.62 81.0496 14.5547C81.838 13.4893 82.9086 12.6531 84.2616 12.0458C85.6253 11.4386 87.17 11.1349 88.8959 11.1349C91.3248 11.1349 93.2318 11.6676 94.6167 12.733C96.0123 13.7983 97.0031 15.2045 97.589 16.9517ZM114.005 36.5114C111.64 36.5114 109.599 35.9893 107.884 34.9453C106.18 33.8906 104.864 32.4205 103.937 30.5348C103.021 28.6385 102.563 26.4332 102.563 23.919C102.563 21.4048 103.021 19.1889 103.937 17.2713C104.864 15.343 106.153 13.8409 107.804 12.7649C109.466 11.6783 111.405 11.1349 113.621 11.1349C114.9 11.1349 116.162 11.348 117.408 11.7741C118.655 12.2003 119.789 12.8928 120.812 13.8516C121.835 14.7997 122.65 16.0568 123.257 17.6229C123.864 19.1889 124.168 21.1172 124.168 23.4077V25.0057H105.248V21.7457H120.333C120.333 20.3608 120.056 19.125 119.502 18.0384C118.958 16.9517 118.181 16.0941 117.169 15.4656C116.167 14.837 114.985 14.5227 113.621 14.5227C112.119 14.5227 110.819 14.8956 109.722 15.6413C108.635 16.3764 107.799 17.3352 107.213 18.5178C106.627 19.7003 106.334 20.968 106.334 22.321V24.4943C106.334 26.348 106.654 27.9194 107.293 29.2085C107.943 30.4869 108.843 31.4616 109.994 32.1328C111.144 32.7933 112.481 33.1236 114.005 33.1236C114.995 33.1236 115.89 32.9851 116.689 32.7081C117.499 32.4205 118.197 31.9943 118.783 31.4297C119.369 30.8544 119.821 30.1406 120.141 29.2884L123.784 30.3111C123.401 31.5469 122.756 32.6335 121.851 33.571C120.945 34.4979 119.827 35.2223 118.495 35.7443C117.163 36.2557 115.667 36.5114 114.005 36.5114ZM133.42 27.0511L133.357 22.3849H134.124L144.862 11.4545H149.528L138.087 23.0241H137.767L133.42 27.0511ZM129.905 36V3.27273H133.676V36H129.905ZM145.501 36L135.913 23.8551L138.598 21.2344L150.295 36H145.501Z" fill="white"/>
</svg>
